<mxfile host="app.diagrams.net" modified="2020-03-31T02:19:01.546Z" agent="5.0 (Windows NT 10.0; Win64; x64) AppleWebKit/537.36 (KHTML, like Gecko) Chrome/80.0.3987.149 Safari/537.36 Edg/80.0.361.69" etag="-dgRn8GBPrKBYmsjtWRY" version="12.9.5" type="github" pages="3">
  <diagram id="YVPe_IiEw3L6lkTa1WSw" name="Login">
    <mxGraphModel dx="862" dy="488" grid="1" gridSize="10" guides="1" tooltips="1" connect="1" arrows="1" fold="1" page="1" pageScale="1" pageWidth="827" pageHeight="1169" math="0" shadow="0">
      <root>
        <mxCell id="0" />
        <mxCell id="1" parent="0" />
        <mxCell id="tWJ3tv7SS9dOmtSgjN6u-1" value="" style="strokeWidth=1;shadow=0;dashed=0;align=center;html=1;shape=mxgraph.mockup.containers.browserWindow;rSize=0;strokeColor=#666666;strokeColor2=#008cff;strokeColor3=#c4c4c4;mainText=,;recursiveResize=0;" vertex="1" parent="1">
          <mxGeometry x="59" y="90" width="721" height="480" as="geometry" />
        </mxCell>
        <mxCell id="tWJ3tv7SS9dOmtSgjN6u-2" value="Login" style="strokeWidth=1;shadow=0;dashed=0;align=center;html=1;shape=mxgraph.mockup.containers.anchor;fontSize=17;fontColor=#666666;align=left;" vertex="1" parent="tWJ3tv7SS9dOmtSgjN6u-1">
          <mxGeometry x="60" y="12" width="110" height="26" as="geometry" />
        </mxCell>
        <mxCell id="tWJ3tv7SS9dOmtSgjN6u-3" value="https://www.draw.io" style="strokeWidth=1;shadow=0;dashed=0;align=center;html=1;shape=mxgraph.mockup.containers.anchor;rSize=0;fontSize=17;fontColor=#666666;align=left;" vertex="1" parent="tWJ3tv7SS9dOmtSgjN6u-1">
          <mxGeometry x="130" y="60" width="250" height="26" as="geometry" />
        </mxCell>
        <mxCell id="tWJ3tv7SS9dOmtSgjN6u-4" value="" style="strokeWidth=1;shadow=0;dashed=0;align=center;html=1;shape=mxgraph.mockup.forms.rrect;rSize=0;strokeColor=#999999;fillColor=#ffffff;" vertex="1" parent="tWJ3tv7SS9dOmtSgjN6u-1">
          <mxGeometry x="260.5" y="130" width="200" height="300" as="geometry" />
        </mxCell>
        <mxCell id="tWJ3tv7SS9dOmtSgjN6u-5" value="Sign In" style="strokeWidth=1;shadow=0;dashed=0;align=center;html=1;shape=mxgraph.mockup.forms.anchor;fontSize=12;fontColor=#666666;align=left;resizeWidth=1;spacingLeft=0;" vertex="1" parent="tWJ3tv7SS9dOmtSgjN6u-4">
          <mxGeometry width="100" height="20" relative="1" as="geometry">
            <mxPoint x="10" y="10" as="offset" />
          </mxGeometry>
        </mxCell>
        <mxCell id="tWJ3tv7SS9dOmtSgjN6u-6" value="" style="shape=line;strokeColor=#ddeeff;strokeWidth=2;html=1;resizeWidth=1;" vertex="1" parent="tWJ3tv7SS9dOmtSgjN6u-4">
          <mxGeometry width="180" height="10" relative="1" as="geometry">
            <mxPoint x="10" y="30" as="offset" />
          </mxGeometry>
        </mxCell>
        <mxCell id="tWJ3tv7SS9dOmtSgjN6u-7" value="User Name:" style="strokeWidth=1;shadow=0;dashed=0;align=center;html=1;shape=mxgraph.mockup.forms.anchor;fontSize=12;fontColor=#666666;align=left;resizeWidth=1;spacingLeft=0;" vertex="1" parent="tWJ3tv7SS9dOmtSgjN6u-4">
          <mxGeometry width="100" height="20" relative="1" as="geometry">
            <mxPoint x="10" y="40" as="offset" />
          </mxGeometry>
        </mxCell>
        <mxCell id="tWJ3tv7SS9dOmtSgjN6u-8" value="johndoe" style="strokeWidth=1;shadow=0;dashed=0;align=center;html=1;shape=mxgraph.mockup.forms.rrect;rSize=0;strokeColor=#999999;fontColor=#666666;align=left;spacingLeft=5;resizeWidth=1;" vertex="1" parent="tWJ3tv7SS9dOmtSgjN6u-4">
          <mxGeometry width="150" height="25" relative="1" as="geometry">
            <mxPoint x="10" y="60" as="offset" />
          </mxGeometry>
        </mxCell>
        <mxCell id="tWJ3tv7SS9dOmtSgjN6u-9" value="Password:" style="strokeWidth=1;shadow=0;dashed=0;align=center;html=1;shape=mxgraph.mockup.forms.anchor;fontSize=12;fontColor=#666666;align=left;resizeWidth=1;spacingLeft=0;" vertex="1" parent="tWJ3tv7SS9dOmtSgjN6u-4">
          <mxGeometry width="100" height="20" relative="1" as="geometry">
            <mxPoint x="10" y="95" as="offset" />
          </mxGeometry>
        </mxCell>
        <mxCell id="tWJ3tv7SS9dOmtSgjN6u-10" value="********" style="strokeWidth=1;shadow=0;dashed=0;align=center;html=1;shape=mxgraph.mockup.forms.rrect;rSize=0;strokeColor=#999999;fontColor=#666666;align=left;spacingLeft=5;resizeWidth=1;" vertex="1" parent="tWJ3tv7SS9dOmtSgjN6u-4">
          <mxGeometry width="150" height="25" relative="1" as="geometry">
            <mxPoint x="10" y="115" as="offset" />
          </mxGeometry>
        </mxCell>
        <mxCell id="tWJ3tv7SS9dOmtSgjN6u-11" value="SIGN IN" style="strokeWidth=1;shadow=0;dashed=0;align=center;html=1;shape=mxgraph.mockup.forms.rrect;rSize=5;strokeColor=none;fontColor=#ffffff;fillColor=#66bbff;fontSize=16;fontStyle=1;" vertex="1" parent="tWJ3tv7SS9dOmtSgjN6u-4">
          <mxGeometry y="1" width="80" height="30" relative="1" as="geometry">
            <mxPoint x="20" y="-150" as="offset" />
          </mxGeometry>
        </mxCell>
        <mxCell id="tWJ3tv7SS9dOmtSgjN6u-12" value="Forgot Password?" style="strokeWidth=1;shadow=0;dashed=0;align=center;html=1;shape=mxgraph.mockup.forms.anchor;fontSize=12;fontColor=#9999ff;align=left;spacingLeft=0;fontStyle=4;resizeWidth=1;" vertex="1" parent="tWJ3tv7SS9dOmtSgjN6u-4">
          <mxGeometry y="1" width="150" height="20" relative="1" as="geometry">
            <mxPoint x="10" y="-110" as="offset" />
          </mxGeometry>
        </mxCell>
        <mxCell id="tWJ3tv7SS9dOmtSgjN6u-13" value="" style="shape=line;strokeColor=#ddeeff;strokeWidth=2;html=1;resizeWidth=1;" vertex="1" parent="tWJ3tv7SS9dOmtSgjN6u-4">
          <mxGeometry y="1" width="180" height="10" relative="1" as="geometry">
            <mxPoint x="10" y="-90" as="offset" />
          </mxGeometry>
        </mxCell>
        <mxCell id="tWJ3tv7SS9dOmtSgjN6u-14" value="New User" style="strokeWidth=1;shadow=0;dashed=0;align=center;html=1;shape=mxgraph.mockup.forms.anchor;fontSize=12;fontColor=#666666;align=left;spacingLeft=0;resizeWidth=1;" vertex="1" parent="tWJ3tv7SS9dOmtSgjN6u-4">
          <mxGeometry y="1" width="150" height="20" relative="1" as="geometry">
            <mxPoint x="10" y="-70" as="offset" />
          </mxGeometry>
        </mxCell>
        <mxCell id="tWJ3tv7SS9dOmtSgjN6u-15" value="SIGN UP" style="strokeWidth=1;shadow=0;dashed=0;align=center;html=1;shape=mxgraph.mockup.forms.rrect;rSize=5;strokeColor=none;fontColor=#ffffff;fillColor=#66bbff;fontSize=16;fontStyle=1;" vertex="1" parent="tWJ3tv7SS9dOmtSgjN6u-4">
          <mxGeometry y="1" width="80" height="30" relative="1" as="geometry">
            <mxPoint x="20" y="-50" as="offset" />
          </mxGeometry>
        </mxCell>
      </root>
    </mxGraphModel>
  </diagram>
  <diagram id="nZ2AH-faQ_hy521PNRzm" name="Index">
    <mxGraphModel dx="862" dy="488" grid="1" gridSize="10" guides="1" tooltips="1" connect="1" arrows="1" fold="1" page="1" pageScale="1" pageWidth="827" pageHeight="1169" math="0" shadow="0">
      <root>
        <mxCell id="-CE2gsIlyxlMj1rFt12f-0" />
        <mxCell id="-CE2gsIlyxlMj1rFt12f-1" parent="-CE2gsIlyxlMj1rFt12f-0" />
        <mxCell id="uZML9XwY7WBkugpjX8Rz-0" value="" style="strokeWidth=1;shadow=0;dashed=0;align=center;html=1;shape=mxgraph.mockup.containers.browserWindow;rSize=0;strokeColor=#666666;strokeColor2=#008cff;strokeColor3=#c4c4c4;mainText=,;recursiveResize=0;" vertex="1" parent="-CE2gsIlyxlMj1rFt12f-1">
          <mxGeometry x="59" y="90" width="721" height="480" as="geometry" />
        </mxCell>
        <mxCell id="uZML9XwY7WBkugpjX8Rz-1" value="Index" style="strokeWidth=1;shadow=0;dashed=0;align=center;html=1;shape=mxgraph.mockup.containers.anchor;fontSize=17;fontColor=#666666;align=left;" vertex="1" parent="uZML9XwY7WBkugpjX8Rz-0">
          <mxGeometry x="60" y="12" width="110" height="26" as="geometry" />
        </mxCell>
        <mxCell id="uZML9XwY7WBkugpjX8Rz-2" value="https://www.draw.io" style="strokeWidth=1;shadow=0;dashed=0;align=center;html=1;shape=mxgraph.mockup.containers.anchor;rSize=0;fontSize=17;fontColor=#666666;align=left;" vertex="1" parent="uZML9XwY7WBkugpjX8Rz-0">
          <mxGeometry x="130" y="60" width="250" height="26" as="geometry" />
        </mxCell>
        <mxCell id="uZML9XwY7WBkugpjX8Rz-15" value="" style="strokeWidth=1;shadow=0;dashed=0;align=center;html=1;shape=mxgraph.mockup.rrect;rSize=10;strokeColor=#666666;" vertex="1" parent="uZML9XwY7WBkugpjX8Rz-0">
          <mxGeometry y="110" width="150" height="370" as="geometry" />
        </mxCell>
        <mxCell id="uZML9XwY7WBkugpjX8Rz-16" value="Stock productos" style="strokeColor=inherit;fillColor=inherit;gradientColor=inherit;strokeWidth=1;shadow=0;dashed=0;align=center;html=1;shape=mxgraph.mockup.rrect;rSize=0;fontSize=17;fontColor=#666666;fontStyle=1;resizeWidth=1;" vertex="1" parent="uZML9XwY7WBkugpjX8Rz-15">
          <mxGeometry width="150" height="50" relative="1" as="geometry">
            <mxPoint y="50" as="offset" />
          </mxGeometry>
        </mxCell>
        <mxCell id="uZML9XwY7WBkugpjX8Rz-17" value="Cuentas actuales" style="strokeColor=inherit;fillColor=inherit;gradientColor=inherit;strokeWidth=1;shadow=0;dashed=0;align=center;html=1;shape=mxgraph.mockup.rrect;rSize=0;fontSize=17;fontColor=#666666;fontStyle=1;resizeWidth=1;" vertex="1" parent="uZML9XwY7WBkugpjX8Rz-15">
          <mxGeometry width="150" height="60" relative="1" as="geometry">
            <mxPoint y="100" as="offset" />
          </mxGeometry>
        </mxCell>
        <mxCell id="uZML9XwY7WBkugpjX8Rz-18" value="Acciones" style="strokeColor=inherit;fillColor=inherit;gradientColor=inherit;strokeWidth=1;shadow=0;dashed=0;align=center;html=1;shape=mxgraph.mockup.bottomButton;rSize=10;fontSize=17;fontColor=#666666;fontStyle=1;resizeWidth=1;" vertex="1" parent="uZML9XwY7WBkugpjX8Rz-15">
          <mxGeometry y="1" width="150" height="50" relative="1" as="geometry">
            <mxPoint y="-50" as="offset" />
          </mxGeometry>
        </mxCell>
        <mxCell id="uZML9XwY7WBkugpjX8Rz-19" value="Inicio" style="strokeWidth=1;shadow=0;dashed=0;align=center;html=1;shape=mxgraph.mockup.topButton;rSize=10;fontSize=17;fontColor=#ffffff;fontStyle=1;fillColor=#008cff;strokeColor=#008cff;resizeWidth=1;" vertex="1" parent="uZML9XwY7WBkugpjX8Rz-15">
          <mxGeometry width="150" height="50" relative="1" as="geometry" />
        </mxCell>
        <mxCell id="uZML9XwY7WBkugpjX8Rz-25" value="Trabajadores" style="strokeColor=inherit;fillColor=inherit;gradientColor=inherit;strokeWidth=1;shadow=0;dashed=0;align=center;html=1;shape=mxgraph.mockup.rrect;rSize=0;fontSize=17;fontColor=#666666;fontStyle=1;resizeWidth=1;" vertex="1" parent="uZML9XwY7WBkugpjX8Rz-15">
          <mxGeometry y="160" width="150" height="110" as="geometry">
            <mxPoint y="100" as="offset" />
          </mxGeometry>
        </mxCell>
        <mxCell id="uZML9XwY7WBkugpjX8Rz-20" value="" style="strokeWidth=1;shadow=0;dashed=0;align=center;html=1;shape=mxgraph.mockup.rrect;rSize=10;fillColor=#ffffff;strokeColor=#666666;" vertex="1" parent="uZML9XwY7WBkugpjX8Rz-0">
          <mxGeometry x="150" y="110" width="570" height="50" as="geometry" />
        </mxCell>
        <mxCell id="uZML9XwY7WBkugpjX8Rz-21" value="Cobrar Pedido" style="strokeColor=inherit;fillColor=inherit;gradientColor=inherit;strokeWidth=1;shadow=0;dashed=0;align=center;html=1;shape=mxgraph.mockup.rrect;rSize=0;fontSize=17;fontColor=#666666;fontStyle=1;resizeHeight=1;" vertex="1" parent="uZML9XwY7WBkugpjX8Rz-20">
          <mxGeometry width="150" height="50" relative="1" as="geometry">
            <mxPoint x="5" as="offset" />
          </mxGeometry>
        </mxCell>
        <mxCell id="uZML9XwY7WBkugpjX8Rz-22" value="Apartar Mesa" style="strokeColor=inherit;fillColor=inherit;gradientColor=inherit;strokeWidth=1;shadow=0;dashed=0;align=center;html=1;shape=mxgraph.mockup.rrect;rSize=0;fontSize=17;fontColor=#666666;fontStyle=1;resizeHeight=1;" vertex="1" parent="uZML9XwY7WBkugpjX8Rz-20">
          <mxGeometry width="150" height="50" relative="1" as="geometry">
            <mxPoint x="161" as="offset" />
          </mxGeometry>
        </mxCell>
        <mxCell id="uZML9XwY7WBkugpjX8Rz-23" value="Realizar pedido a domicilio" style="strokeColor=inherit;fillColor=inherit;gradientColor=inherit;strokeWidth=1;shadow=0;dashed=0;align=center;html=1;shape=mxgraph.mockup.rightButton;rSize=10;fontSize=17;fontColor=#666666;fontStyle=1;resizeHeight=1;" vertex="1" parent="uZML9XwY7WBkugpjX8Rz-20">
          <mxGeometry x="1" width="237" height="50" relative="1" as="geometry">
            <mxPoint x="-237" as="offset" />
          </mxGeometry>
        </mxCell>
        <mxCell id="uZML9XwY7WBkugpjX8Rz-27" value="&lt;table cellpadding=&quot;4&quot; cellspacing=&quot;0&quot; border=&quot;1&quot; style=&quot;font-size: 1em ; width: 100% ; height: 100%&quot;&gt;&lt;tbody&gt;&lt;tr&gt;&lt;th&gt;Lista de pedidos&lt;/th&gt;&lt;th&gt;Mesa&lt;/th&gt;&lt;/tr&gt;&lt;tr&gt;&lt;td&gt;row 1, cell 1&lt;/td&gt;&lt;td&gt;row 1, cell 2&lt;/td&gt;&lt;/tr&gt;&lt;tr&gt;&lt;td&gt;row 2, cell 1&lt;/td&gt;&lt;td&gt;row 2, cell 2&lt;/td&gt;&lt;/tr&gt;&lt;/tbody&gt;&lt;/table&gt; " style="verticalAlign=top;align=left;overflow=fill;fontSize=12;fontFamily=Helvetica;html=1" vertex="1" parent="uZML9XwY7WBkugpjX8Rz-0">
          <mxGeometry x="161" y="170" width="189" height="180" as="geometry" />
        </mxCell>
        <mxCell id="uZML9XwY7WBkugpjX8Rz-28" value="click para ver la cuenta de la mesa" style="rounded=1;whiteSpace=wrap;html=1;" vertex="1" parent="uZML9XwY7WBkugpjX8Rz-0">
          <mxGeometry x="380" y="200" width="120" height="60" as="geometry" />
        </mxCell>
        <mxCell id="uZML9XwY7WBkugpjX8Rz-30" value="" style="rounded=1;whiteSpace=wrap;html=1;" vertex="1" parent="uZML9XwY7WBkugpjX8Rz-0">
          <mxGeometry x="380" y="280" width="120" height="60" as="geometry" />
        </mxCell>
        <mxCell id="uZML9XwY7WBkugpjX8Rz-31" value="" style="rounded=1;whiteSpace=wrap;html=1;" vertex="1" parent="uZML9XwY7WBkugpjX8Rz-0">
          <mxGeometry x="526" y="280" width="120" height="60" as="geometry" />
        </mxCell>
        <mxCell id="uZML9XwY7WBkugpjX8Rz-33" value="" style="rounded=1;whiteSpace=wrap;html=1;" vertex="1" parent="uZML9XwY7WBkugpjX8Rz-0">
          <mxGeometry x="526" y="360" width="120" height="60" as="geometry" />
        </mxCell>
        <mxCell id="uZML9XwY7WBkugpjX8Rz-34" value="&lt;b&gt;&lt;font style=&quot;font-size: 15px&quot;&gt;Mesas Activas&lt;/font&gt;&lt;/b&gt;" style="text;html=1;strokeColor=none;fillColor=none;align=left;verticalAlign=middle;whiteSpace=wrap;rounded=0;" vertex="1" parent="uZML9XwY7WBkugpjX8Rz-0">
          <mxGeometry x="380" y="170" width="130" height="20" as="geometry" />
        </mxCell>
        <mxCell id="uZML9XwY7WBkugpjX8Rz-35" value="" style="rounded=1;whiteSpace=wrap;html=1;" vertex="1" parent="uZML9XwY7WBkugpjX8Rz-0">
          <mxGeometry x="526" y="200" width="120" height="60" as="geometry" />
        </mxCell>
        <mxCell id="uZML9XwY7WBkugpjX8Rz-36" value="" style="rounded=1;whiteSpace=wrap;html=1;" vertex="1" parent="uZML9XwY7WBkugpjX8Rz-0">
          <mxGeometry x="380" y="360" width="120" height="60" as="geometry" />
        </mxCell>
      </root>
    </mxGraphModel>
  </diagram>
  <diagram id="1pT6sRzOgn8H3rceV0u-" name="Page-3">
    <mxGraphModel dx="862" dy="488" grid="1" gridSize="10" guides="1" tooltips="1" connect="1" arrows="1" fold="1" page="1" pageScale="1" pageWidth="827" pageHeight="1169" math="0" shadow="0">
      <root>
        <mxCell id="PO-_AZcCs1BFC5Abxk7q-0" />
        <mxCell id="PO-_AZcCs1BFC5Abxk7q-1" parent="PO-_AZcCs1BFC5Abxk7q-0" />
        <mxCell id="PO-_AZcCs1BFC5Abxk7q-2" value="" style="strokeWidth=1;shadow=0;dashed=0;align=center;html=1;shape=mxgraph.mockup.containers.browserWindow;rSize=0;strokeColor=#666666;strokeColor2=#008cff;strokeColor3=#c4c4c4;mainText=,;recursiveResize=0;" vertex="1" parent="PO-_AZcCs1BFC5Abxk7q-1">
          <mxGeometry x="59" y="90" width="721" height="480" as="geometry" />
        </mxCell>
        <mxCell id="PO-_AZcCs1BFC5Abxk7q-3" value="Index" style="strokeWidth=1;shadow=0;dashed=0;align=center;html=1;shape=mxgraph.mockup.containers.anchor;fontSize=17;fontColor=#666666;align=left;" vertex="1" parent="PO-_AZcCs1BFC5Abxk7q-2">
          <mxGeometry x="60" y="12" width="110" height="26" as="geometry" />
        </mxCell>
        <mxCell id="PO-_AZcCs1BFC5Abxk7q-4" value="https://www.draw.io" style="strokeWidth=1;shadow=0;dashed=0;align=center;html=1;shape=mxgraph.mockup.containers.anchor;rSize=0;fontSize=17;fontColor=#666666;align=left;" vertex="1" parent="PO-_AZcCs1BFC5Abxk7q-2">
          <mxGeometry x="130" y="60" width="250" height="26" as="geometry" />
        </mxCell>
        <mxCell id="PO-_AZcCs1BFC5Abxk7q-5" value="" style="strokeWidth=1;shadow=0;dashed=0;align=center;html=1;shape=mxgraph.mockup.rrect;rSize=10;strokeColor=#666666;" vertex="1" parent="PO-_AZcCs1BFC5Abxk7q-2">
          <mxGeometry y="110" width="150" height="370" as="geometry" />
        </mxCell>
        <mxCell id="PO-_AZcCs1BFC5Abxk7q-6" value="Stock productos" style="strokeColor=inherit;fillColor=inherit;gradientColor=inherit;strokeWidth=1;shadow=0;dashed=0;align=center;html=1;shape=mxgraph.mockup.rrect;rSize=0;fontSize=17;fontColor=#666666;fontStyle=1;resizeWidth=1;" vertex="1" parent="PO-_AZcCs1BFC5Abxk7q-5">
          <mxGeometry width="150" height="50" relative="1" as="geometry">
            <mxPoint y="50" as="offset" />
          </mxGeometry>
        </mxCell>
        <mxCell id="PO-_AZcCs1BFC5Abxk7q-7" value="Cuentas actuales" style="strokeColor=inherit;fillColor=inherit;gradientColor=inherit;strokeWidth=1;shadow=0;dashed=0;align=center;html=1;shape=mxgraph.mockup.rrect;rSize=0;fontSize=17;fontColor=#666666;fontStyle=1;resizeWidth=1;" vertex="1" parent="PO-_AZcCs1BFC5Abxk7q-5">
          <mxGeometry width="150" height="60" relative="1" as="geometry">
            <mxPoint y="100" as="offset" />
          </mxGeometry>
        </mxCell>
        <mxCell id="PO-_AZcCs1BFC5Abxk7q-8" value="Acciones" style="strokeColor=inherit;fillColor=inherit;gradientColor=inherit;strokeWidth=1;shadow=0;dashed=0;align=center;html=1;shape=mxgraph.mockup.bottomButton;rSize=10;fontSize=17;fontColor=#666666;fontStyle=1;resizeWidth=1;" vertex="1" parent="PO-_AZcCs1BFC5Abxk7q-5">
          <mxGeometry y="1" width="150" height="50" relative="1" as="geometry">
            <mxPoint y="-50" as="offset" />
          </mxGeometry>
        </mxCell>
        <mxCell id="PO-_AZcCs1BFC5Abxk7q-9" value="Inicio" style="strokeWidth=1;shadow=0;dashed=0;align=center;html=1;shape=mxgraph.mockup.topButton;rSize=10;fontSize=17;fontColor=#ffffff;fontStyle=1;fillColor=#008cff;strokeColor=#008cff;resizeWidth=1;" vertex="1" parent="PO-_AZcCs1BFC5Abxk7q-5">
          <mxGeometry width="150" height="50" relative="1" as="geometry" />
        </mxCell>
        <mxCell id="PO-_AZcCs1BFC5Abxk7q-10" value="Trabajadores" style="strokeColor=inherit;fillColor=inherit;gradientColor=inherit;strokeWidth=1;shadow=0;dashed=0;align=center;html=1;shape=mxgraph.mockup.rrect;rSize=0;fontSize=17;fontColor=#666666;fontStyle=1;resizeWidth=1;" vertex="1" parent="PO-_AZcCs1BFC5Abxk7q-5">
          <mxGeometry y="160" width="150" height="110" as="geometry">
            <mxPoint y="100" as="offset" />
          </mxGeometry>
        </mxCell>
        <mxCell id="PO-_AZcCs1BFC5Abxk7q-11" value="" style="strokeWidth=1;shadow=0;dashed=0;align=center;html=1;shape=mxgraph.mockup.rrect;rSize=10;fillColor=#ffffff;strokeColor=#666666;" vertex="1" parent="PO-_AZcCs1BFC5Abxk7q-2">
          <mxGeometry x="150" y="110" width="570" height="50" as="geometry" />
        </mxCell>
        <mxCell id="PO-_AZcCs1BFC5Abxk7q-12" value="Cobrar Pedido" style="strokeColor=inherit;fillColor=inherit;gradientColor=inherit;strokeWidth=1;shadow=0;dashed=0;align=center;html=1;shape=mxgraph.mockup.rrect;rSize=0;fontSize=17;fontColor=#666666;fontStyle=1;resizeHeight=1;" vertex="1" parent="PO-_AZcCs1BFC5Abxk7q-11">
          <mxGeometry width="150" height="50" relative="1" as="geometry">
            <mxPoint x="5" as="offset" />
          </mxGeometry>
        </mxCell>
        <mxCell id="PO-_AZcCs1BFC5Abxk7q-13" value="Apartar Mesa" style="strokeColor=inherit;fillColor=inherit;gradientColor=inherit;strokeWidth=1;shadow=0;dashed=0;align=center;html=1;shape=mxgraph.mockup.rrect;rSize=0;fontSize=17;fontColor=#666666;fontStyle=1;resizeHeight=1;" vertex="1" parent="PO-_AZcCs1BFC5Abxk7q-11">
          <mxGeometry width="150" height="50" relative="1" as="geometry">
            <mxPoint x="161" as="offset" />
          </mxGeometry>
        </mxCell>
        <mxCell id="PO-_AZcCs1BFC5Abxk7q-14" value="Realizar pedido a domicilio" style="strokeColor=inherit;fillColor=inherit;gradientColor=inherit;strokeWidth=1;shadow=0;dashed=0;align=center;html=1;shape=mxgraph.mockup.rightButton;rSize=10;fontSize=17;fontColor=#666666;fontStyle=1;resizeHeight=1;" vertex="1" parent="PO-_AZcCs1BFC5Abxk7q-11">
          <mxGeometry x="1" width="237" height="50" relative="1" as="geometry">
            <mxPoint x="-237" as="offset" />
          </mxGeometry>
        </mxCell>
        <mxCell id="PO-_AZcCs1BFC5Abxk7q-15" value="&lt;table cellpadding=&quot;4&quot; cellspacing=&quot;0&quot; border=&quot;1&quot; style=&quot;font-size: 1em ; width: 100% ; height: 100%&quot;&gt;&lt;tbody&gt;&lt;tr&gt;&lt;th&gt;Lista de pedidos&lt;/th&gt;&lt;th&gt;Mesa&lt;/th&gt;&lt;/tr&gt;&lt;tr&gt;&lt;td&gt;row 1, cell 1&lt;/td&gt;&lt;td&gt;row 1, cell 2&lt;/td&gt;&lt;/tr&gt;&lt;tr&gt;&lt;td&gt;row 2, cell 1&lt;/td&gt;&lt;td&gt;row 2, cell 2&lt;/td&gt;&lt;/tr&gt;&lt;/tbody&gt;&lt;/table&gt; " style="verticalAlign=top;align=left;overflow=fill;fontSize=12;fontFamily=Helvetica;html=1" vertex="1" parent="PO-_AZcCs1BFC5Abxk7q-2">
          <mxGeometry x="161" y="170" width="189" height="180" as="geometry" />
        </mxCell>
        <mxCell id="PO-_AZcCs1BFC5Abxk7q-16" value="click para ver la cuenta de la mesa" style="rounded=1;whiteSpace=wrap;html=1;" vertex="1" parent="PO-_AZcCs1BFC5Abxk7q-2">
          <mxGeometry x="380" y="200" width="120" height="60" as="geometry" />
        </mxCell>
        <mxCell id="PO-_AZcCs1BFC5Abxk7q-17" value="" style="rounded=1;whiteSpace=wrap;html=1;" vertex="1" parent="PO-_AZcCs1BFC5Abxk7q-2">
          <mxGeometry x="380" y="280" width="120" height="60" as="geometry" />
        </mxCell>
        <mxCell id="PO-_AZcCs1BFC5Abxk7q-18" value="" style="rounded=1;whiteSpace=wrap;html=1;" vertex="1" parent="PO-_AZcCs1BFC5Abxk7q-2">
          <mxGeometry x="526" y="280" width="120" height="60" as="geometry" />
        </mxCell>
        <mxCell id="PO-_AZcCs1BFC5Abxk7q-19" value="" style="rounded=1;whiteSpace=wrap;html=1;" vertex="1" parent="PO-_AZcCs1BFC5Abxk7q-2">
          <mxGeometry x="526" y="360" width="120" height="60" as="geometry" />
        </mxCell>
        <mxCell id="PO-_AZcCs1BFC5Abxk7q-20" value="&lt;b&gt;&lt;font style=&quot;font-size: 15px&quot;&gt;Mesas Activas&lt;/font&gt;&lt;/b&gt;" style="text;html=1;strokeColor=none;fillColor=none;align=left;verticalAlign=middle;whiteSpace=wrap;rounded=0;" vertex="1" parent="PO-_AZcCs1BFC5Abxk7q-2">
          <mxGeometry x="380" y="170" width="130" height="20" as="geometry" />
        </mxCell>
        <mxCell id="PO-_AZcCs1BFC5Abxk7q-21" value="" style="rounded=1;whiteSpace=wrap;html=1;" vertex="1" parent="PO-_AZcCs1BFC5Abxk7q-2">
          <mxGeometry x="526" y="200" width="120" height="60" as="geometry" />
        </mxCell>
        <mxCell id="PO-_AZcCs1BFC5Abxk7q-22" value="" style="rounded=1;whiteSpace=wrap;html=1;" vertex="1" parent="PO-_AZcCs1BFC5Abxk7q-2">
          <mxGeometry x="380" y="360" width="120" height="60" as="geometry" />
        </mxCell>
        <mxCell id="PO-_AZcCs1BFC5Abxk7q-23" value="Consumo" style="strokeWidth=1;shadow=0;dashed=0;align=center;html=1;shape=mxgraph.mockup.containers.rrect;rSize=0;strokeColor=#666666;fontColor=#666666;fontSize=17;verticalAlign=top;whiteSpace=wrap;fillColor=#ffffff;spacingTop=32;" vertex="1" parent="PO-_AZcCs1BFC5Abxk7q-2">
          <mxGeometry x="238.57" y="185" width="392.86" height="245" as="geometry" />
        </mxCell>
        <mxCell id="PO-_AZcCs1BFC5Abxk7q-24" value="Pedido de&amp;nbsp; la mesa $" style="strokeWidth=1;shadow=0;dashed=0;align=center;html=1;shape=mxgraph.mockup.containers.rrect;rSize=0;fontSize=17;fontColor=#666666;strokeColor=#666666;align=left;spacingLeft=8;fillColor=none;resizeWidth=1;" vertex="1" parent="PO-_AZcCs1BFC5Abxk7q-23">
          <mxGeometry width="392.86" height="30" relative="1" as="geometry" />
        </mxCell>
        <mxCell id="PO-_AZcCs1BFC5Abxk7q-25" value="" style="shape=ellipse;strokeColor=#008cff;resizable=0;fillColor=none;html=1;" vertex="1" parent="PO-_AZcCs1BFC5Abxk7q-24">
          <mxGeometry x="1" y="0.5" width="20" height="20" relative="1" as="geometry">
            <mxPoint x="-25" y="-10" as="offset" />
          </mxGeometry>
        </mxCell>
        <mxCell id="PO-_AZcCs1BFC5Abxk7q-26" value="Cancelar" style="strokeWidth=1;shadow=0;dashed=0;align=center;html=1;shape=mxgraph.mockup.containers.rrect;rSize=0;fontSize=16;fontColor=#666666;strokeColor=#c4c4c4;whiteSpace=wrap;fillColor=none;" vertex="1" parent="PO-_AZcCs1BFC5Abxk7q-23">
          <mxGeometry x="0.25" y="1" width="90" height="25" relative="1" as="geometry">
            <mxPoint x="-45" y="-33" as="offset" />
          </mxGeometry>
        </mxCell>
        <mxCell id="PO-_AZcCs1BFC5Abxk7q-27" value="Cobrar" style="strokeWidth=1;shadow=0;dashed=0;align=center;html=1;shape=mxgraph.mockup.containers.rrect;rSize=0;fontSize=16;fontColor=#666666;strokeColor=#c4c4c4;whiteSpace=wrap;fillColor=none;" vertex="1" parent="PO-_AZcCs1BFC5Abxk7q-23">
          <mxGeometry x="0.75" y="1" width="90" height="25" relative="1" as="geometry">
            <mxPoint x="-45" y="-33" as="offset" />
          </mxGeometry>
        </mxCell>
        <mxCell id="PO-_AZcCs1BFC5Abxk7q-28" value="&lt;table cellpadding=&quot;4&quot; cellspacing=&quot;0&quot; border=&quot;1&quot; style=&quot;font-size:1em;width:100%;height:100%;&quot;&gt;&lt;tr&gt;&lt;th&gt;Header 1&lt;/th&gt;&lt;th&gt;Header 2&lt;/th&gt;&lt;/tr&gt;&lt;tr&gt;&lt;td&gt;row 1, cell 1&lt;/td&gt;&lt;td&gt;row 1, cell 2&lt;/td&gt;&lt;/tr&gt;&lt;tr&gt;&lt;td&gt;row 2, cell 1&lt;/td&gt;&lt;td&gt;row 2, cell 2&lt;/td&gt;&lt;/tr&gt;&lt;/table&gt; " style="verticalAlign=top;align=left;overflow=fill;fontSize=12;fontFamily=Helvetica;html=1" vertex="1" parent="PO-_AZcCs1BFC5Abxk7q-23">
          <mxGeometry x="82.43" y="65" width="247.57" height="115" as="geometry" />
        </mxCell>
      </root>
    </mxGraphModel>
  </diagram>
</mxfile>
